<?xml version="1.0" encoding="UTF-8" standalone="no"?>
<!-- Created with Inkscape (http://www.inkscape.org/) -->

<svg
   width="39.158283mm"
   height="39.158283mm"
   viewBox="0 0 39.158283 39.158283"
   version="1.1"
   id="svg5"
   sodipodi:docname="QR.svg"
   inkscape:version="1.2.2 (b0a8486, 2022-12-01)"
   xmlns:inkscape="http://www.inkscape.org/namespaces/inkscape"
   xmlns:sodipodi="http://sodipodi.sourceforge.net/DTD/sodipodi-0.dtd"
   xmlns="http://www.w3.org/2000/svg"
   xmlns:svg="http://www.w3.org/2000/svg">
  <sodipodi:namedview
     id="namedview7"
     pagecolor="#ffffff"
     bordercolor="#000000"
     borderopacity="0.25"
     inkscape:showpageshadow="2"
     inkscape:pageopacity="0.0"
     inkscape:pagecheckerboard="0"
     inkscape:deskcolor="#d1d1d1"
     inkscape:document-units="mm"
     showgrid="false"
     inkscape:zoom="2.1467952"
     inkscape:cx="55.897273"
     inkscape:cy="75.461319"
     inkscape:window-width="1920"
     inkscape:window-height="1029"
     inkscape:window-x="0"
     inkscape:window-y="25"
     inkscape:window-maximized="1"
     inkscape:current-layer="layer1" />
  <defs
     id="defs2" />
  <g
     inkscape:label="Layer 1"
     inkscape:groupmode="layer"
     id="layer1"
     transform="translate(-104.926,-148.5)">
    <g
       inkscape:label="QR Code: https://jp-barbosa.github.io/RevealGT4EM/"
       transform="matrix(0.264583,0,0,0.264583,104.926,148.5)"
       id="g21">
      <rect
         x="0"
         y="0"
         width="148"
         height="148"
         style="fill:#ffffff;stroke:none"
         id="rect15" />
      <g
         style="fill:#000000;stroke:none"
         id="g19">
        <path
           d="m 16,16 h 4 v 4 h -4 z m 4,0 h 4 v 4 h -4 z m 4,0 h 4 v 4 h -4 z m 4,0 h 4 v 4 h -4 z m 4,0 h 4 v 4 h -4 z m 4,0 h 4 v 4 h -4 z m 4,0 h 4 v 4 h -4 z m 16,0 h 4 v 4 h -4 z m 28,0 h 4 v 4 h -4 z m 4,0 h 4 v 4 h -4 z m 4,0 h 4 v 4 h -4 z m 12,0 h 4 v 4 h -4 z m 4,0 h 4 v 4 h -4 z m 4,0 h 4 v 4 h -4 z m 4,0 h 4 v 4 h -4 z m 4,0 h 4 v 4 h -4 z m 4,0 h 4 v 4 h -4 z m 4,0 h 4 v 4 h -4 z M 16,20 h 4 v 4 h -4 z m 24,0 h 4 v 4 h -4 z m 8,0 h 4 v 4 h -4 z m 4,0 h 4 v 4 h -4 z m 4,0 h 4 v 4 h -4 z m 16,0 h 4 v 4 h -4 z m 4,0 h 4 v 4 h -4 z m 8,0 h 4 v 4 h -4 z m 20,0 h 4 v 4 h -4 z m 24,0 h 4 v 4 h -4 z M 16,24 h 4 v 4 h -4 z m 8,0 h 4 v 4 h -4 z m 4,0 h 4 v 4 h -4 z m 4,0 h 4 v 4 h -4 z m 8,0 h 4 v 4 h -4 z m 8,0 h 4 v 4 h -4 z m 28,0 h 4 v 4 h -4 z m 8,0 h 4 v 4 h -4 z m 4,0 h 4 v 4 h -4 z m 8,0 h 4 v 4 h -4 z m 8,0 h 4 v 4 h -4 z m 8,0 h 4 v 4 h -4 z m 4,0 h 4 v 4 h -4 z m 4,0 h 4 v 4 h -4 z m 8,0 h 4 v 4 h -4 z M 16,28 h 4 v 4 h -4 z m 8,0 h 4 v 4 h -4 z m 4,0 h 4 v 4 h -4 z m 4,0 h 4 v 4 h -4 z m 8,0 h 4 v 4 h -4 z m 12,0 h 4 v 4 h -4 z m 12,0 h 4 v 4 h -4 z m 12,0 h 4 v 4 h -4 z m 12,0 h 4 v 4 h -4 z m 4,0 h 4 v 4 h -4 z m 4,0 h 4 v 4 h -4 z m 8,0 h 4 v 4 h -4 z m 8,0 h 4 v 4 h -4 z m 4,0 h 4 v 4 h -4 z m 4,0 h 4 v 4 h -4 z m 8,0 h 4 v 4 h -4 z M 16,32 h 4 v 4 h -4 z m 8,0 h 4 v 4 h -4 z m 4,0 h 4 v 4 h -4 z m 4,0 h 4 v 4 h -4 z m 8,0 h 4 v 4 h -4 z m 8,0 h 4 v 4 h -4 z m 4,0 h 4 v 4 h -4 z m 4,0 h 4 v 4 h -4 z m 8,0 h 4 v 4 h -4 z m 4,0 h 4 v 4 h -4 z m 12,0 h 4 v 4 h -4 z m 24,0 h 4 v 4 h -4 z m 8,0 h 4 v 4 h -4 z m 4,0 h 4 v 4 h -4 z m 4,0 h 4 v 4 h -4 z m 8,0 h 4 v 4 h -4 z M 16,36 h 4 v 4 h -4 z m 24,0 h 4 v 4 h -4 z m 8,0 h 4 v 4 h -4 z m 8,0 h 4 v 4 h -4 z m 8,0 h 4 v 4 h -4 z m 4,0 h 4 v 4 h -4 z m 8,0 h 4 v 4 h -4 z m 12,0 h 4 v 4 h -4 z m 4,0 h 4 v 4 h -4 z m 12,0 h 4 v 4 h -4 z m 24,0 h 4 v 4 h -4 z M 16,40 h 4 v 4 h -4 z m 4,0 h 4 v 4 h -4 z m 4,0 h 4 v 4 h -4 z m 4,0 h 4 v 4 h -4 z m 4,0 h 4 v 4 h -4 z m 4,0 h 4 v 4 h -4 z m 4,0 h 4 v 4 h -4 z m 8,0 h 4 v 4 h -4 z m 8,0 h 4 v 4 h -4 z m 8,0 h 4 v 4 h -4 z m 8,0 h 4 v 4 h -4 z m 8,0 h 4 v 4 h -4 z m 8,0 h 4 v 4 h -4 z m 8,0 h 4 v 4 h -4 z m 8,0 h 4 v 4 h -4 z m 4,0 h 4 v 4 h -4 z m 4,0 h 4 v 4 h -4 z m 4,0 h 4 v 4 h -4 z m 4,0 h 4 v 4 h -4 z m 4,0 h 4 v 4 h -4 z m 4,0 h 4 v 4 h -4 z m -80,4 h 4 v 4 h -4 z m 8,0 h 4 v 4 h -4 z m 4,0 h 4 v 4 h -4 z m 16,0 h 4 v 4 h -4 z m 8,0 h 4 v 4 h -4 z m 4,0 h 4 v 4 h -4 z m -72,4 h 4 v 4 h -4 z m 4,0 h 4 v 4 h -4 z m 8,0 h 4 v 4 h -4 z m 12,0 h 4 v 4 h -4 z m 4,0 h 4 v 4 h -4 z m 16,0 h 4 v 4 h -4 z m 4,0 h 4 v 4 h -4 z m 8,0 h 4 v 4 h -4 z m 4,0 h 4 v 4 h -4 z m 4,0 h 4 v 4 h -4 z m 12,0 h 4 v 4 h -4 z m 12,0 h 4 v 4 h -4 z m 4,0 h 4 v 4 h -4 z m 4,0 h 4 v 4 h -4 z m 8,0 h 4 v 4 h -4 z m 4,0 h 4 v 4 h -4 z M 20,52 h 4 v 4 h -4 z m 8,0 h 4 v 4 h -4 z m 4,0 h 4 v 4 h -4 z m 4,0 h 4 v 4 h -4 z m 8,0 h 4 v 4 h -4 z m 4,0 h 4 v 4 h -4 z m 4,0 h 4 v 4 h -4 z m 8,0 h 4 v 4 h -4 z m 4,0 h 4 v 4 h -4 z m 4,0 h 4 v 4 h -4 z m 12,0 h 4 v 4 h -4 z m 4,0 h 4 v 4 h -4 z m 12,0 h 4 v 4 h -4 z m 4,0 h 4 v 4 h -4 z m 4,0 h 4 v 4 h -4 z m 12,0 h 4 v 4 h -4 z m 12,0 h 4 v 4 h -4 z M 16,56 h 4 v 4 h -4 z m 8,0 h 4 v 4 h -4 z m 8,0 h 4 v 4 h -4 z m 8,0 h 4 v 4 h -4 z m 8,0 h 4 v 4 h -4 z m 12,0 h 4 v 4 h -4 z m 4,0 h 4 v 4 h -4 z m 4,0 h 4 v 4 h -4 z m 12,0 h 4 v 4 h -4 z m 4,0 h 4 v 4 h -4 z m 4,0 h 4 v 4 h -4 z m 4,0 h 4 v 4 h -4 z m 24,0 h 4 v 4 h -4 z m 4,0 h 4 v 4 h -4 z m 4,0 h 4 v 4 h -4 z M 16,60 h 4 v 4 h -4 z m 8,0 h 4 v 4 h -4 z m 4,0 h 4 v 4 h -4 z m 20,0 h 4 v 4 h -4 z m 4,0 h 4 v 4 h -4 z m 4,0 h 4 v 4 h -4 z m 4,0 h 4 v 4 h -4 z m 4,0 h 4 v 4 h -4 z m 4,0 h 4 v 4 h -4 z m 8,0 h 4 v 4 h -4 z m 44,0 h 4 v 4 h -4 z m 4,0 h 4 v 4 h -4 z M 16,64 h 4 v 4 h -4 z m 4,0 h 4 v 4 h -4 z m 4,0 h 4 v 4 h -4 z m 8,0 h 4 v 4 h -4 z m 8,0 h 4 v 4 h -4 z m 16,0 h 4 v 4 h -4 z m 4,0 h 4 v 4 h -4 z m 20,0 h 4 v 4 h -4 z m 4,0 h 4 v 4 h -4 z m 4,0 h 4 v 4 h -4 z m 8,0 h 4 v 4 h -4 z m 4,0 h 4 v 4 h -4 z m 4,0 h 4 v 4 h -4 z m 12,0 h 4 v 4 h -4 z m 8,0 h 4 v 4 h -4 z m 4,0 h 4 v 4 h -4 z M 16,68 h 4 v 4 h -4 z m 4,0 h 4 v 4 h -4 z m 24,0 h 4 v 4 h -4 z m 4,0 h 4 v 4 h -4 z m 12,0 h 4 v 4 h -4 z m 8,0 h 4 v 4 h -4 z m 24,0 h 4 v 4 h -4 z m 4,0 h 4 v 4 h -4 z m -76,4 h 4 v 4 h -4 z m 4,0 h 4 v 4 h -4 z m 4,0 h 4 v 4 h -4 z m 12,0 h 4 v 4 h -4 z m 12,0 h 4 v 4 h -4 z m 4,0 h 4 v 4 h -4 z m 4,0 h 4 v 4 h -4 z m 12,0 h 4 v 4 h -4 z m 32,0 h 4 v 4 h -4 z m 8,0 h 4 v 4 h -4 z m 4,0 h 4 v 4 h -4 z m 4,0 h 4 v 4 h -4 z m 4,0 h 4 v 4 h -4 z m 4,0 h 4 v 4 h -4 z m -96,4 h 4 v 4 h -4 z m 4,0 h 4 v 4 h -4 z m 8,0 h 4 v 4 h -4 z m 4,0 h 4 v 4 h -4 z m 8,0 h 4 v 4 h -4 z m 4,0 h 4 v 4 h -4 z m 8,0 h 4 v 4 h -4 z m 4,0 h 4 v 4 h -4 z m 4,0 h 4 v 4 h -4 z m 4,0 h 4 v 4 h -4 z m 4,0 h 4 v 4 h -4 z m 12,0 h 4 v 4 h -4 z m 4,0 h 4 v 4 h -4 z m 4,0 h 4 v 4 h -4 z m 8,0 h 4 v 4 h -4 z m 4,0 h 4 v 4 h -4 z m 8,0 h 4 v 4 h -4 z M 16,80 h 4 v 4 h -4 z m 12,0 h 4 v 4 h -4 z m 4,0 h 4 v 4 h -4 z m 8,0 h 4 v 4 h -4 z m 4,0 h 4 v 4 h -4 z m 4,0 h 4 v 4 h -4 z m 8,0 h 4 v 4 h -4 z m 8,0 h 4 v 4 h -4 z m 8,0 h 4 v 4 h -4 z m 12,0 h 4 v 4 h -4 z m 12,0 h 4 v 4 h -4 z m 4,0 h 4 v 4 h -4 z m 24,0 h 4 v 4 h -4 z m -92,4 h 4 v 4 h -4 z m 4,0 h 4 v 4 h -4 z m 8,0 h 4 v 4 h -4 z m 8,0 h 4 v 4 h -4 z m 4,0 h 4 v 4 h -4 z m 8,0 h 4 v 4 h -4 z m 8,0 h 4 v 4 h -4 z m 8,0 h 4 v 4 h -4 z m 4,0 h 4 v 4 h -4 z m 12,0 h 4 v 4 h -4 z m 4,0 h 4 v 4 h -4 z m 4,0 h 4 v 4 h -4 z m 12,0 h 4 v 4 h -4 z m 12,0 h 4 v 4 h -4 z M 16,88 h 4 v 4 h -4 z m 16,0 h 4 v 4 h -4 z m 8,0 h 4 v 4 h -4 z m 12,0 h 4 v 4 h -4 z m 4,0 h 4 v 4 h -4 z m 4,0 h 4 v 4 h -4 z m 4,0 h 4 v 4 h -4 z m 4,0 h 4 v 4 h -4 z m 12,0 h 4 v 4 h -4 z m 8,0 h 4 v 4 h -4 z m 16,0 h 4 v 4 h -4 z m 8,0 h 4 v 4 h -4 z m 12,0 h 4 v 4 h -4 z m 4,0 h 4 v 4 h -4 z M 24,92 h 4 v 4 h -4 z m 4,0 h 4 v 4 h -4 z m 4,0 h 4 v 4 h -4 z m 4,0 h 4 v 4 h -4 z m 8,0 h 4 v 4 h -4 z m 4,0 h 4 v 4 h -4 z m 4,0 h 4 v 4 h -4 z m 12,0 h 4 v 4 h -4 z m 8,0 h 4 v 4 h -4 z m 12,0 h 4 v 4 h -4 z m 4,0 h 4 v 4 h -4 z m 12,0 h 4 v 4 h -4 z m 8,0 h 4 v 4 h -4 z m 16,0 h 4 v 4 h -4 z m 4,0 h 4 v 4 h -4 z M 16,96 h 4 v 4 h -4 z m 8,0 h 4 v 4 h -4 z m 8,0 h 4 v 4 h -4 z m 8,0 h 4 v 4 h -4 z m 8,0 h 4 v 4 h -4 z m 4,0 h 4 v 4 h -4 z m 44,0 h 4 v 4 h -4 z m 4,0 h 4 v 4 h -4 z m 4,0 h 4 v 4 h -4 z m 4,0 h 4 v 4 h -4 z m 4,0 h 4 v 4 h -4 z m 8,0 h 4 v 4 h -4 z m -72,4 h 4 v 4 h -4 z m 8,0 h 4 v 4 h -4 z m 4,0 h 4 v 4 h -4 z m 20,0 h 4 v 4 h -4 z m 12,0 h 4 v 4 h -4 z m 4,0 h 4 v 4 h -4 z m 16,0 h 4 v 4 h -4 z m 8,0 h 4 v 4 h -4 z m 4,0 h 4 v 4 h -4 z m 4,0 h 4 v 4 h -4 z m -112,4 h 4 v 4 h -4 z m 4,0 h 4 v 4 h -4 z m 4,0 h 4 v 4 h -4 z m 4,0 h 4 v 4 h -4 z m 4,0 h 4 v 4 h -4 z m 4,0 h 4 v 4 h -4 z m 4,0 h 4 v 4 h -4 z m 8,0 h 4 v 4 h -4 z m 4,0 h 4 v 4 h -4 z m 4,0 h 4 v 4 h -4 z m 24,0 h 4 v 4 h -4 z m 4,0 h 4 v 4 h -4 z m 12,0 h 4 v 4 h -4 z m 8,0 h 4 v 4 h -4 z m 8,0 h 4 v 4 h -4 z m 12,0 h 4 v 4 h -4 z m -108,4 h 4 v 4 h -4 z m 24,0 h 4 v 4 h -4 z m 32,0 h 4 v 4 h -4 z m 4,0 h 4 v 4 h -4 z m 4,0 h 4 v 4 h -4 z m 8,0 h 4 v 4 h -4 z m 8,0 h 4 v 4 h -4 z m 16,0 h 4 v 4 h -4 z m 4,0 h 4 v 4 h -4 z m 4,0 h 4 v 4 h -4 z m -104,4 h 4 v 4 h -4 z m 8,0 h 4 v 4 h -4 z m 4,0 h 4 v 4 h -4 z m 4,0 h 4 v 4 h -4 z m 8,0 h 4 v 4 h -4 z m 24,0 h 4 v 4 h -4 z m 16,0 h 4 v 4 h -4 z m 4,0 h 4 v 4 h -4 z m 4,0 h 4 v 4 h -4 z m 8,0 h 4 v 4 h -4 z m 4,0 h 4 v 4 h -4 z m 4,0 h 4 v 4 h -4 z m 4,0 h 4 v 4 h -4 z m 4,0 h 4 v 4 h -4 z m -96,4 h 4 v 4 h -4 z m 8,0 h 4 v 4 h -4 z m 4,0 h 4 v 4 h -4 z m 4,0 h 4 v 4 h -4 z m 8,0 h 4 v 4 h -4 z m 8,0 h 4 v 4 h -4 z m 4,0 h 4 v 4 h -4 z m 8,0 h 4 v 4 h -4 z m 4,0 h 4 v 4 h -4 z m 28,0 h 4 v 4 h -4 z m 4,0 h 4 v 4 h -4 z m 8,0 h 4 v 4 h -4 z m 8,0 h 4 v 4 h -4 z m 4,0 h 4 v 4 h -4 z m 4,0 h 4 v 4 h -4 z m 4,0 h 4 v 4 h -4 z m -108,4 h 4 v 4 h -4 z m 8,0 h 4 v 4 h -4 z m 4,0 h 4 v 4 h -4 z m 4,0 h 4 v 4 h -4 z m 8,0 h 4 v 4 h -4 z m 12,0 h 4 v 4 h -4 z m 12,0 h 4 v 4 h -4 z m 16,0 h 4 v 4 h -4 z m 32,0 h 4 v 4 h -4 z m 4,0 h 4 v 4 h -4 z m 4,0 h 4 v 4 h -4 z m 8,0 h 4 v 4 h -4 z m -112,4 h 4 v 4 h -4 z m 24,0 h 4 v 4 h -4 z m 8,0 h 4 v 4 h -4 z m 16,0 h 4 v 4 h -4 z m 4,0 h 4 v 4 h -4 z m 4,0 h 4 v 4 h -4 z m 12,0 h 4 v 4 h -4 z m 4,0 h 4 v 4 h -4 z m 8,0 h 4 v 4 h -4 z m 8,0 h 4 v 4 h -4 z m 4,0 h 4 v 4 h -4 z m 4,0 h 4 v 4 h -4 z m 12,0 h 4 v 4 h -4 z m -108,4 h 4 v 4 h -4 z m 4,0 h 4 v 4 h -4 z m 4,0 h 4 v 4 h -4 z m 4,0 h 4 v 4 h -4 z m 4,0 h 4 v 4 h -4 z m 4,0 h 4 v 4 h -4 z m 4,0 h 4 v 4 h -4 z m 8,0 h 4 v 4 h -4 z m 4,0 h 4 v 4 h -4 z m 4,0 h 4 v 4 h -4 z m 4,0 h 4 v 4 h -4 z m 8,0 h 4 v 4 h -4 z m 4,0 h 4 v 4 h -4 z m 8,0 h 4 v 4 h -4 z m 16,0 h 4 v 4 h -4 z m 4,0 h 4 v 4 h -4 z m 4,0 h 4 v 4 h -4 z m 12,0 h 4 v 4 h -4 z m 8,0 h 4 v 4 h -4 z"
           id="path17" />
      </g>
    </g>
  </g>
</svg>
