<?xml version="1.0" encoding="UTF-8" standalone="no"?>
<!-- Created with Inkscape (http://www.inkscape.org/) -->

<svg
   version="1.1"
   id="svg2"
   width="207.87334"
   height="83.14933"
   viewBox="0 0 207.87334 83.14933"
   sodipodi:docname="tuda_logo.svg"
   inkscape:version="1.2.1 (9c6d41e410, 2022-07-14)"
   xmlns:inkscape="http://www.inkscape.org/namespaces/inkscape"
   xmlns:sodipodi="http://sodipodi.sourceforge.net/DTD/sodipodi-0.dtd"
   xmlns="http://www.w3.org/2000/svg"
   xmlns:svg="http://www.w3.org/2000/svg">
  <defs
     id="defs6">
    <clipPath
       clipPathUnits="userSpaceOnUse"
       id="clipPath20">
      <path
         d="M 0,0 H 155.905 V 62.362 H 0 Z"
         id="path18" />
    </clipPath>
  </defs>
  <sodipodi:namedview
     id="namedview4"
     pagecolor="#ffffff"
     bordercolor="#666666"
     borderopacity="1.0"
     inkscape:showpageshadow="2"
     inkscape:pageopacity="0.0"
     inkscape:pagecheckerboard="0"
     inkscape:deskcolor="#d1d1d1"
     showgrid="false"
     inkscape:zoom="6.9850229"
     inkscape:cx="80.958933"
     inkscape:cy="41.588983"
     inkscape:window-width="1600"
     inkscape:window-height="871"
     inkscape:window-x="5111"
     inkscape:window-y="360"
     inkscape:window-maximized="1"
     inkscape:current-layer="g10">
    <inkscape:page
       x="0"
       y="0"
       id="page8"
       width="207.87334"
       height="83.14933" />
  </sodipodi:namedview>
  <g
     id="g10"
     inkscape:groupmode="layer"
     inkscape:label="Page 1"
     transform="matrix(1.3333333,0,0,-1.3333333,0,83.149333)">
    <path
       d="M 0,0 H 155.905 V 62.362 H 0 Z"
       style="fill:#ffffff;fill-opacity:1;fill-rule:nonzero;stroke:none"
       id="path12" />
    <g
       id="g14">
      <g
         id="g16"
         clip-path="url(#clipPath20)">
        <g
           id="g22"
           transform="translate(46.3032,32.6255)">
          <path
             d="M 0,0 C 0.283,0.016 0.586,0.035 0.778,-0.019 0.918,-0.028 0.982,-0.132 0.979,-0.234 0.975,-0.487 0.649,-0.621 0.397,-0.703 0.438,-0.824 0.466,-0.956 0.478,-1.094 0.528,-1.687 0.279,-2.22 -0.1,-2.305 -0.112,-2.309 -0.126,-2.313 -0.141,-2.314 -0.606,-2.392 -1.148,-2.43 -1.708,-2.42 c -0.04,-0.012 -0.083,-0.012 -0.123,0.002 -0.87,0.025 -1.771,0.168 -2.483,0.46 -0.014,-0.014 -0.02,-0.022 -0.02,-0.022 -0.18,-0.216 -0.503,0.054 -0.324,0.27 0.005,0.005 0.049,0.058 0.135,0.14 0.012,0.015 0.026,0.028 0.042,0.039 C -4.017,-1.098 -2.613,-0.035 0,0 m -1.763,-0.632 c -0.053,-0.592 0.006,-1.012 0.145,-1.376 0.269,-0.002 0.553,0.008 0.849,0.036 -0.137,0.192 -0.233,0.451 -0.258,0.738 -0.024,0.278 0.022,0.542 0.116,0.75 -0.285,-0.033 -0.571,-0.083 -0.852,-0.148 m -0.306,-1.359 c -0.111,0.356 -0.155,0.753 -0.124,1.244 -0.641,-0.193 -1.245,-0.482 -1.763,-0.888 0.195,-0.065 0.474,-0.146 0.82,-0.216 0.306,-0.061 0.665,-0.114 1.067,-0.14 m 6.218,-4.736 c 0.005,0 0.01,-10e-4 0.015,-10e-4 L 4.157,-6.729 Z m -16.241,-6.523 c -0.651,0 -1.178,0.526 -1.178,1.178 0,0.651 0.527,1.177 1.178,1.177 0.65,0 1.177,-0.526 1.177,-1.177 0,-0.652 -0.527,-1.178 -1.177,-1.178 m 0,0.42 c 0.418,0 0.757,0.339 0.757,0.758 0,0.418 -0.339,0.757 -0.757,0.757 -0.418,0 -0.757,-0.339 -0.757,-0.757 0,-0.419 0.339,-0.758 0.757,-0.758 m -5.137,23.54 c 0,-0.234 -0.189,-0.425 -0.424,-0.425 -0.234,0 -0.424,0.191 -0.424,0.425 0,0.235 0.19,0.424 0.424,0.424 0.235,0 0.424,-0.189 0.424,-0.424 M -5.203,6.926 c 0,-0.192 -0.155,-0.347 -0.347,-0.347 -0.192,0 -0.347,0.155 -0.347,0.347 0,0.191 0.155,0.346 0.347,0.346 0.192,0 0.347,-0.155 0.347,-0.346 m 2.228,2.702 c 0,-0.241 -0.196,-0.438 -0.438,-0.438 -0.242,0 -0.439,0.197 -0.439,0.438 0,0.243 0.197,0.439 0.439,0.439 0.242,0 0.438,-0.196 0.438,-0.439 M -4.107,8.327 c 0,-0.217 -0.176,-0.392 -0.393,-0.392 -0.217,0 -0.393,0.175 -0.393,0.392 0,0.217 0.176,0.393 0.393,0.393 0.217,0 0.393,-0.176 0.393,-0.393 m -7.308,-15.095 0.053,0.394 c -0.16,-0.007 -0.322,-0.008 -0.484,-0.002 -0.292,-0.385 -0.588,-0.766 -0.889,-1.14 0.013,-0.327 0.052,-0.636 0.109,-0.927 0.893,0.743 2.591,0.248 2.065,-1.508 0.271,-0.196 0.504,-0.444 0.683,-0.728 0.931,1.315 0.135,3.442 -1.686,3.499 -0.28,0.01 -0.268,0.43 0.013,0.422 0.046,-0.003 0.092,-0.005 0.136,-0.01 m 0.416,-0.065 c 1.874,-0.453 2.514,-2.859 1.333,-4.258 0.123,-0.305 0.19,-0.635 0.19,-0.981 0,-0.708 -0.28,-1.349 -0.736,-1.821 3.669,-2.214 7.768,-2.636 10.477,-2.064 2.832,0.599 3.849,2.111 2.062,3.753 -0.309,0.287 0.536,1.063 1.157,1.136 0.071,0.406 -0.097,0.693 -0.425,0.86 -0.882,0.083 -2.292,-0.38 -3.225,-0.59 -0.054,-0.183 -0.325,-0.23 -0.396,-0.007 -0.097,0.304 0.155,0.768 0.221,0.909 0.128,0.274 0.475,0.093 0.355,-0.147 -0.044,-0.087 -0.09,-0.201 -0.125,-0.311 0.967,0.229 2.251,0.64 3.169,0.569 0.227,0.167 0.831,0.618 0.702,0.919 -0.035,0.083 -0.103,0.182 -0.211,0.327 -0.452,0.598 -0.26,1.017 0.157,1.464 -0.72,0.092 -1.633,-10e-4 -2.118,-0.54 -0.279,-0.311 -0.778,0.516 -0.831,0.637 -0.2,0.458 -0.168,1.066 0.53,1.711 0.206,0.192 0.492,-0.118 0.286,-0.307 C 1.016,-6.089 0.874,-6.647 1.398,-7.172 l 0.024,-0.024 c 0.753,0.618 1.806,0.685 2.727,0.469 l 0.008,-0.002 0.007,0.001 C 5.758,-6.623 5.631,-5.98 5.218,-4.811 5.054,-4.35 4.833,-3.813 4.6,-3.199 4.258,-2.303 3.625,-0.477 2.947,1.508 1.131,2.222 -1.451,1.804 -3.436,0.921 c -0.489,-0.769 -1.208,-1.49 -2.21,-2.164 -0.488,-2.713 -2.709,-4.771 -5.286,-5.092 z m -1.508,-2.105 c 0.053,-0.188 0.113,-0.366 0.177,-0.53 0.078,0.008 0.158,0.011 0.238,0.011 0.415,0 0.808,-0.097 1.157,-0.269 0.264,1.128 -0.848,1.62 -1.572,0.788 m 0.015,-5.72 c 0.021,-1.427 -0.494,-3.773 -2.232,-5.65 2.621,-0.661 8.268,-2.442 10.344,-3.18 0.281,0.057 0.563,0.122 0.844,0.192 -0.36,1.658 -0.326,4.091 0.498,6.718 -2.353,0.151 -5.031,0.873 -7.507,2.395 -0.433,-0.317 -0.968,-0.506 -1.547,-0.506 -0.136,0 -0.27,0.01 -0.4,0.031 m -2.576,-5.998 c -0.269,-0.258 -0.565,-0.505 -0.888,-0.737 2.356,-0.513 6.539,-1.886 8.011,-2.563 0.9,0.052 1.814,0.153 2.734,0.31 -2.52,0.858 -7.602,2.445 -9.857,2.99 m -1.383,-1.065 c -0.412,-0.253 -0.863,-0.482 -1.358,-0.681 2.422,-1.021 5.539,-1.65 8.877,-1.594 -1.967,0.764 -5.626,1.917 -7.519,2.275 m -1.906,-0.438 c 0.642,0.225 1.213,0.504 1.72,0.82 0.018,0.017 0.039,0.029 0.064,0.04 0.481,0.305 0.905,0.645 1.276,1.008 0.011,0.016 0.026,0.03 0.043,0.042 1.88,1.869 2.39,4.308 2.338,5.692 -0.433,0.144 -0.816,0.397 -1.116,0.728 0.226,-2.444 -0.555,-5.393 -4.11,-7.168 -0.055,-0.03 -0.07,-0.035 -0.098,-0.038 -0.022,-0.002 -0.068,-0.001 -0.126,0.019 -0.604,0.193 -1.223,0.51 -1.771,0.912 -0.069,0.046 -0.069,0.048 -0.13,0.099 -0.488,0.378 -0.913,0.823 -1.209,1.308 -0.035,0.055 -0.033,0.051 -0.055,0.093 -0.702,1.226 -0.57,2.674 1.413,3.863 -0.098,0.317 -0.226,0.616 -0.378,0.908 -4.045,-2.766 -2.442,-6.191 2.139,-8.326 m 5.682,7.97 c 0.014,-0.003 0.029,-0.007 0.042,-0.012 0.174,-0.044 0.354,-0.067 0.541,-0.067 0.529,0 1.013,0.187 1.392,0.497 0.008,0.007 0.016,0.015 0.024,0.021 0.476,0.402 0.779,1.004 0.779,1.678 0,0.324 -0.071,0.634 -0.198,0.911 -0.009,0.015 -0.017,0.033 -0.023,0.05 -0.356,0.731 -1.106,1.234 -1.974,1.234 -0.11,0 -0.218,-0.009 -0.323,-0.024 l -0.044,-0.007 c -0.401,-0.069 -0.765,-0.244 -1.061,-0.497 l -0.03,-0.027 c -0.453,-0.401 -0.738,-0.987 -0.738,-1.64 0,-1.011 0.684,-1.863 1.613,-2.117 m -7.571,0.777 c 0.007,-0.01 0.013,-0.022 0.018,-0.031 0.043,-0.078 0.085,-0.156 0.126,-0.234 0.826,0.484 1.61,1.031 2.359,1.629 0.01,0.008 0.02,0.017 0.031,0.024 0.352,0.282 0.697,0.576 1.034,0.879 0.014,0.019 0.032,0.034 0.05,0.045 0.342,0.311 0.677,0.63 1.004,0.959 0.013,0.016 0.027,0.031 0.042,0.043 0.439,0.442 0.866,0.9 1.282,1.371 0.015,0.03 0.036,0.054 0.062,0.071 0.374,0.425 0.739,0.862 1.099,1.305 0.013,0.032 0.034,0.057 0.058,0.075 0.321,0.398 0.635,0.801 0.945,1.212 0.028,0.037 0.025,0.026 0.052,0.067 0.347,0.46 0.688,0.927 1.026,1.397 0.011,0.025 0.027,0.048 0.049,0.068 1.237,1.728 2.418,3.51 3.604,5.233 0.009,0.02 0.022,0.038 0.037,0.054 0.338,0.49 0.677,0.975 1.017,1.453 0.01,0.022 0.024,0.042 0.041,0.057 0.585,0.821 1.178,1.621 1.784,2.386 0.057,0.072 0.114,0.144 0.172,0.216 0.012,0.024 0.028,0.044 0.048,0.06 0.354,0.44 0.714,0.867 1.08,1.279 0.012,0.019 0.027,0.035 0.043,0.049 0.655,0.734 1.33,1.42 2.035,2.042 0.014,0.017 0.031,0.032 0.05,0.044 0.443,0.388 0.898,0.751 1.366,1.084 0.016,0.016 0.035,0.03 0.056,0.04 l 0.067,0.047 c 0.011,0.009 0.023,0.017 0.035,0.024 0.066,0.046 0.132,0.09 0.198,0.135 l -0.406,1.19 c -0.229,-0.177 -0.454,-0.357 -0.676,-0.54 -0.011,-0.012 -0.023,-0.022 -0.037,-0.031 -7.93,-6.586 -11.32,-17.275 -20.094,-23.151 0.121,-0.181 0.236,-0.365 0.343,-0.551 m 9.089,7.475 c 0.009,0.001 0.017,0.001 0.026,0.001 2.471,0.242 4.635,2.207 5.079,4.822 0,0.022 0.003,0.044 0.01,0.065 0.084,0.523 0.097,1.072 0.031,1.636 C -6.017,0.609 -6.02,0.631 -6.019,0.653 -6.061,0.987 -6.131,1.326 -6.232,1.669 -6.489,1.304 -6.741,0.94 -6.989,0.578 c 0.361,-1.859 -0.494,-4.461 -3.745,-5.446 -0.263,-0.366 -0.528,-0.73 -0.797,-1.09 0.125,0.002 0.25,0.01 0.374,0.021 m 8.524,9.061 C -0.467,4.142 0.457,6.466 0.252,8.893 -0.091,8.637 -0.428,8.364 -0.759,8.077 -0.617,6.585 -1.147,5.421 -2.581,4.334 -2.563,3.92 -2.579,3.517 -2.633,3.124 m 0.015,1.716 c 1.066,0.875 1.486,1.775 1.459,2.88 -0.57,-0.523 -1.122,-1.087 -1.656,-1.68 0.089,-0.409 0.156,-0.809 0.197,-1.2 M -5.657,1.071 C -4.664,2.083 -4.346,3.17 -4.348,4.214 -4.893,3.522 -5.418,2.813 -5.926,2.1 -5.809,1.753 -5.719,1.41 -5.657,1.071 m -4.655,-5.346 c 2.34,0.929 3.08,2.824 2.968,4.334 -0.532,-0.784 -1.046,-1.549 -1.542,-2.277 -0.469,-0.686 -0.943,-1.375 -1.426,-2.057 m 1.859,11.793 c -0.232,0.322 -0.315,0.796 -0.237,1.17 0.04,0.193 0.229,-0.114 0.265,-0.15 0.13,-0.127 0.308,-0.206 0.482,-0.28 0.354,0.508 0.714,1.011 1.083,1.506 0.415,0.559 0.839,1.106 1.274,1.638 -0.722,0.863 -1.944,0.372 -1.605,-0.991 0.068,-0.273 -0.341,-0.374 -0.409,-0.102 -0.075,0.304 -0.09,0.575 -0.059,0.811 -0.922,0.305 -1.58,-0.535 -1.007,-1.372 0.191,0.18 0.483,-0.098 0.296,-0.3 l -1.64,-1.766 c -0.013,-0.021 -0.031,-0.04 -0.051,-0.055 l -1.322,-1.424 c 0.576,-0.105 1.158,-0.25 1.757,-0.452 0.386,0.594 0.776,1.183 1.173,1.767 m -2.078,1.45 c -0.315,0.078 -0.624,0.177 -0.755,0.502 -0.058,0.145 0.407,0.072 0.464,0.071 0.114,-0.002 0.226,0.025 0.337,0.059 0.025,0.233 0.057,0.464 0.089,0.692 0,0.006 0.001,0.012 0.002,0.019 0.011,0.075 0.021,0.149 0.031,0.224 0.038,0.278 0.453,0.222 0.418,-0.054 1.241,0.103 0.997,1.877 -0.316,1.617 -0.275,-0.056 -0.357,0.358 -0.082,0.412 0.298,0.059 0.557,0.046 0.775,-0.019 -0.137,1.78 -2.867,0.693 -1.311,-0.642 0.212,-0.182 -0.061,-0.502 -0.274,-0.319 -0.273,0.234 -0.449,0.466 -0.547,0.688 -0.968,-0.148 -0.687,-1.341 -0.071,-1.555 l 0.009,0.035 c 0.067,0.272 0.476,0.171 0.409,-0.102 l -0.054,-0.217 c -10e-4,-0.009 -0.004,-0.019 -0.007,-0.028 L -12.4,6.348 c 0.172,-0.018 0.345,-0.04 0.517,-0.065 l 1.456,1.569 c -0.091,0.363 -0.115,0.738 -0.104,1.116 m 1.243,1.28 c -0.19,-0.114 -0.428,-0.185 -0.716,-0.192 -0.082,-0.596 -0.156,-1.233 -0.069,-1.824 l 1.115,1.202 c -0.2,0.266 -0.304,0.546 -0.33,0.814 M -21.116,8.855 c -0.229,-0.246 -0.45,-0.5 -0.662,-0.759 0.421,-0.584 0.925,-0.967 1.508,-1.216 -0.076,0.517 -0.081,1.26 0.068,1.733 z m -1.471,-1.848 c -1.007,-1.486 -1.749,-3.134 -2.195,-4.838 0.452,0.268 0.936,0.474 1.301,0.561 -0.127,0.645 -0.098,1.321 0.167,2.052 0.091,0.252 0.365,0.225 0.406,-0.039 0.165,-1.072 1.238,-1.91 2.073,-2.56 0.199,0.162 0.412,0.327 0.639,0.493 -1.213,0.887 -2.152,2.201 -2.391,4.331 m -2.338,-5.43 C -24.98,1.324 -25.03,1.07 -25.072,0.816 l 0.913,-1.459 c 0.153,0.125 0.313,0.243 0.477,0.347 -0.733,1.518 -0.879,1.199 0.573,1.912 -0.107,0.232 -0.199,0.467 -0.271,0.706 -0.391,-0.092 -1.018,-0.374 -1.545,-0.745 m -0.241,-1.405 c -0.08,-0.654 -0.116,-1.31 -0.106,-1.964 0.205,0.267 0.478,0.576 0.792,0.869 z m -0.08,-2.669 c 0.01,-0.173 0.022,-0.344 0.037,-0.511 0.395,0.284 1.039,0.722 1.428,0.841 0.098,0.51 0.267,1.066 0.591,1.668 -0.033,-0.017 -0.067,-0.035 -0.1,-0.052 -0.009,-0.007 -0.019,-0.012 -0.029,-0.017 -0.906,-0.52 -1.739,-1.566 -1.927,-1.929 m 2.326,3.735 -0.82,-0.414 0.428,-0.914 c 0.158,0.077 0.319,0.138 0.48,0.18 0.1,0.146 0.21,0.296 0.331,0.447 -0.151,0.232 -0.292,0.465 -0.419,0.701 m 0.208,-7.811 c 0.04,-0.589 0.095,-1.181 0.012,-1.762 0.674,0.046 0.929,0.244 1.295,0.614 -0.492,0.308 -0.915,0.652 -1.307,1.148 m 1.546,8.48 c -0.732,0.572 -1.518,1.208 -1.926,2.045 -0.069,-0.473 -0.031,-0.92 0.068,-1.33 l 0.003,-0.015 c 0.17,-0.696 0.514,-1.288 0.802,-1.733 0.294,0.333 0.642,0.677 1.053,1.033 m 2.38,-4.026 c -0.055,-0.082 -0.106,-0.167 -0.15,-0.257 -0.484,-0.961 0.037,-1.701 0.618,-1.701 1.314,0 1.236,1.885 -0.468,1.958 m -0.25,4.099 c -0.27,0.134 -0.535,0.282 -0.791,0.444 -0.313,-0.225 -0.598,-0.445 -0.859,-0.662 -0.009,-0.01 -0.02,-0.018 -0.031,-0.026 -0.554,-0.462 -0.994,-0.903 -1.344,-1.321 -0.009,-0.015 -0.02,-0.027 -0.031,-0.039 -0.158,-0.19 -0.297,-0.377 -0.42,-0.561 -0.009,-0.022 -0.022,-0.042 -0.04,-0.06 -0.495,-0.755 -0.713,-1.432 -0.825,-2.036 -0.165,-0.895 -0.041,-2.049 -0.56,-2.836 0.814,0.049 1.041,0.278 1.538,0.777 -0.497,2.238 1.11,5.116 3.363,6.32 m -0.715,6.513 -0.045,0.012 c -0.146,-0.431 -0.128,-1.334 -0.015,-1.79 0.821,-0.244 1.777,-0.286 2.858,-0.278 0.901,0.005 1.758,0.027 2.599,0.016 -0.302,0.38 -0.468,0.782 -0.543,1.136 -1.255,-0.501 -3.735,-0.338 -4.854,0.904 m 3.356,0.715 c -0.563,0.819 -0.696,1.913 0.007,3.022 -0.939,-0.412 -1.813,-0.919 -2.618,-1.504 0.379,-0.767 1.433,-1.695 2.611,-1.518 m 1.493,-1.163 c -0.452,0.174 -0.865,0.448 -1.194,0.794 -1.48,-0.378 -2.763,0.726 -3.251,1.631 -0.508,-0.392 -0.987,-0.817 -1.435,-1.268 l 0.901,-0.239 c 0.011,-0.002 0.022,-0.005 0.032,-0.008 l 0.229,-0.06 c 0.033,-0.003 0.066,-0.013 0.098,-0.035 0.032,-0.019 0.056,-0.044 0.072,-0.072 1.069,-1.21 3.594,-1.23 4.548,-0.743 m 0.186,3.896 0.124,-0.087 c 0.014,-0.008 0.028,-0.018 0.041,-0.03 l 0.682,-0.484 -0.153,1.687 c -0.549,-0.132 -1.081,-0.295 -1.595,-0.485 -1.092,-1.191 -0.967,-2.451 -0.288,-3.294 0.024,-0.019 0.042,-0.041 0.056,-0.067 0.539,-0.623 1.389,-0.999 2.26,-0.914 l -0.083,0.919 c -0.11,-0.027 -0.224,-0.041 -0.34,-0.041 -0.808,0 -1.464,0.656 -1.464,1.463 0,0.416 0.174,0.791 0.452,1.058 -0.104,0.172 0.107,0.417 0.308,0.275 m 1.565,-3.883 c -0.004,-0.036 -0.016,-0.07 -0.037,-0.1 -0.023,-0.031 -0.057,-0.057 -0.102,-0.071 -0.01,-0.004 -0.022,-0.006 -0.034,-0.009 -0.354,-0.061 -0.713,-0.051 -1.059,0.017 -0.038,-0.035 -0.079,-0.067 -0.124,-0.1 0.059,-0.399 0.264,-0.912 0.737,-1.355 0.316,-0.01 0.631,-0.027 0.946,-0.053 l 0.952,3.864 c -1.035,0.305 -1.32,2.141 0.074,2.378 -0.011,0.301 0.116,0.569 0.321,0.778 -0.734,-0.045 -1.445,-0.142 -2.131,-0.286 l 0.196,-2.157 c 0.007,-0.025 0.009,-0.049 0.007,-0.074 l 0.021,-0.229 c 0.025,-0.279 -0.394,-0.317 -0.42,-0.038 l -0.015,0.166 -0.867,0.615 c -0.226,-0.191 -0.369,-0.477 -0.369,-0.796 0,-0.575 0.467,-1.042 1.043,-1.042 0.104,0 0.205,0.016 0.301,0.044 l -0.007,0.076 c -0.026,0.279 0.394,0.317 0.419,0.039 l 0.02,-0.216 c 0.003,-0.017 0.005,-0.033 0.004,-0.05 l 0.123,-1.35 c 0.002,-0.021 0.002,-0.036 10e-4,-0.051 m 7.635,12.685 -2.424,-5.646 c 0.315,-0.058 0.63,-0.127 0.945,-0.206 l 2.379,4.591 c 0.129,0.249 0.503,0.056 0.374,-0.193 l -2.337,-4.51 c 0.412,-0.116 0.823,-0.251 1.232,-0.405 l 3.302,5.471 c -1.17,0.394 -2.329,0.691 -3.471,0.898 m -3.994,0.37 -1.486,-5.768 c 0.382,0.008 0.765,0.002 1.149,-0.02 l 1.422,4.55 c 0.084,0.269 0.486,0.143 0.402,-0.125 l -1.392,-4.455 c 0.349,-0.029 0.698,-0.07 1.048,-0.125 l 2.424,5.646 c -1.209,0.197 -2.4,0.293 -3.567,0.297 m -4,-0.357 -0.391,-5.755 c 0.377,0.082 0.757,0.15 1.14,0.203 l 0.695,4.548 c 0.043,0.277 0.459,0.213 0.416,-0.064 l -0.677,-4.43 c 0.296,0.032 0.594,0.056 0.893,0.071 l 1.489,5.781 c -1.218,-0.02 -2.408,-0.141 -3.565,-0.354 m -3.934,-1.115 0.74,-5.52 c 0.323,0.134 0.649,0.258 0.978,0.372 l -0.15,4.605 c -0.01,0.28 0.411,0.295 0.42,0.014 l 0.147,-4.483 c 0.323,0.102 0.65,0.194 0.979,0.274 l 0.392,5.77 c -1.208,-0.247 -2.38,-0.595 -3.506,-1.032 m -3.502,-1.731 1.718,-5.106 c 0.271,0.172 0.547,0.336 0.827,0.492 l -1.017,4.264 c -0.065,0.273 0.344,0.37 0.409,0.097 l 0.991,-4.154 c 0.3,0.157 0.604,0.305 0.913,0.444 l -0.743,5.532 c -1.077,-0.443 -2.112,-0.969 -3.098,-1.569 m -3.22,-2.366 2.614,-4.503 c 0.227,0.204 0.458,0.401 0.695,0.594 l -1.723,3.966 c -0.111,0.257 0.274,0.425 0.386,0.168 l 1.679,-3.865 c 0.3,0.231 0.608,0.452 0.922,0.663 l -1.721,5.116 c -1.007,-0.64 -1.96,-1.356 -2.852,-2.139 m -2.714,-2.813 3.318,-3.832 c 0.208,0.264 0.423,0.519 0.645,0.769 l -2.459,3.381 c -0.165,0.227 0.175,0.474 0.34,0.247 l 2.409,-3.311 c 0.245,0.263 0.498,0.517 0.758,0.763 l -2.618,4.51 c -0.859,-0.783 -1.659,-1.628 -2.393,-2.527 m -2.234,-3.252 3.941,-3.005 c 0.143,0.261 0.294,0.519 0.45,0.772 l -2.894,2.775 c -0.202,0.194 0.089,0.498 0.292,0.303 l 2.832,-2.716 c 0.212,0.326 0.435,0.642 0.668,0.952 l -3.323,3.838 c -0.727,-0.924 -1.385,-1.9 -1.966,-2.919 m -1.634,-3.505 4.39,-2.192 c 0.107,0.316 0.223,0.627 0.348,0.935 l -3.355,2.056 c -0.239,0.147 -0.019,0.506 0.22,0.359 l 3.301,-2.023 c 0.147,0.335 0.303,0.665 0.47,0.988 l -3.948,3.01 C -29.873,8.1 -30.351,7.052 -30.748,5.974 m -1.059,-3.932 4.776,-0.983 c 0.051,0.326 0.113,0.648 0.183,0.967 l -3.659,1.152 c -0.267,0.084 -0.141,0.486 0.127,0.401 l 3.628,-1.142 c 0.078,0.317 0.166,0.63 0.262,0.94 l -4.401,2.197 C -31.29,4.426 -31.598,3.246 -31.807,2.042 m -0.322,-3.972 4.902,-0.098 c -0.01,0.335 -0.01,0.668 0,0.997 l -3.794,0.42 c -0.279,0.03 -0.233,0.448 0.046,0.418 l 3.766,-0.416 c 0.023,0.422 0.063,0.838 0.117,1.252 l -4.784,0.984 c -0.181,-1.17 -0.268,-2.359 -0.253,-3.557 m 0.455,-4.127 4.808,1.028 c -0.072,0.342 -0.133,0.682 -0.183,1.022 l -3.829,-0.359 c -0.28,-0.027 -0.319,0.392 -0.04,0.419 l 3.812,0.357 c -0.048,0.383 -0.081,0.763 -0.102,1.141 l -4.913,0.098 c 0.039,-1.231 0.185,-2.47 0.447,-3.706 m 1.223,-3.891 4.435,2.063 c -0.112,0.29 -0.216,0.579 -0.312,0.868 L -29.95,-8.08 c -0.269,-0.079 -0.388,0.326 -0.119,0.404 l 3.613,1.061 c -0.121,0.392 -0.227,0.784 -0.318,1.174 l -4.809,-1.025 c 0.271,-1.169 0.646,-2.331 1.132,-3.482 m 5.868,-0.904 -3.831,-2.863 c 0.641,-0.961 1.371,-1.903 2.193,-2.82 l 3.006,3.6 c -0.199,0.272 -0.39,0.543 -0.573,0.816 l -2.867,-2.836 c -0.199,-0.197 -0.496,0.101 -0.296,0.3 l 2.927,2.894 c -0.196,0.303 -0.382,0.607 -0.559,0.909 m -4.062,-2.511 3.853,2.88 c -0.184,0.329 -0.357,0.659 -0.519,0.989 l -3.22,-1.964 c -0.24,-0.146 -0.458,0.213 -0.219,0.359 l 3.257,1.987 c -0.13,0.279 -0.252,0.557 -0.366,0.835 l -4.424,-2.056 c 0.456,-1.024 1,-2.036 1.638,-3.03 m 23.33,25.093 c 0.202,0.242 0.406,0.481 0.614,0.716 -1.11,0.368 -2.186,0.627 -3.226,0.788 -0.018,0 -0.035,0.003 -0.052,0.008 -0.484,0.073 -0.962,0.125 -1.431,0.157 0.182,-0.257 0.289,-0.628 0.267,-1.138 0.248,-0.211 0.391,-0.515 0.422,-0.83 0.306,0.189 0.715,0.247 1.176,0.096 0.38,0.848 1.516,0.978 2.23,0.203 m -5.121,-7.234 c 0.19,0.297 0.381,0.594 0.572,0.89 -0.657,0.216 -1.299,0.362 -1.933,0.46 -0.022,0 -0.044,0.003 -0.064,0.009 -1.667,0.249 -3.297,0.173 -5.089,0.161 -1.112,-0.009 -2.152,0.032 -3.065,0.322 -0.025,0.003 -0.049,0.011 -0.071,0.023 -0.753,0.251 -1.417,0.677 -1.962,1.392 -0.055,-0.071 -0.109,-0.142 -0.162,-0.214 0.02,-0.349 0.056,-0.675 0.109,-0.981 1.068,-1.397 3.125,-1.598 5.43,-1.591 1.819,0.004 4.499,0.236 6.235,-0.471 m -0.781,-1.225 c 0.183,0.288 0.366,0.576 0.55,0.864 -1.651,0.634 -4.305,0.415 -6.003,0.411 -1.974,-0.006 -3.961,0.127 -5.243,1.208 0.196,-0.648 0.477,-1.189 0.829,-1.648 1.89,-0.811 5.528,-0.391 7.756,-0.501 0.787,-0.039 1.517,-0.13 2.111,-0.334 m -0.882,-1.386 c 0.217,0.34 0.433,0.679 0.649,1.019 -1.288,0.402 -3.371,0.307 -4.638,0.288 -1.548,-0.024 -3.159,-0.036 -4.417,0.281 0.653,-0.602 1.458,-1.037 2.353,-1.407 0.632,-0.106 2.213,-0.01 2.754,0.005 1.182,0.032 2.478,0.039 3.299,-0.186 m -1.155,-1.789 c 0.307,0.47 0.613,0.942 0.916,1.416 -1.16,0.269 -3.268,0.123 -4.581,0.094 0.457,-0.157 0.928,-0.309 1.407,-0.468 0.705,-0.234 1.377,-0.483 1.926,-0.818 0.023,-0.009 0.044,-0.022 0.061,-0.038 0.094,-0.059 0.185,-0.121 0.271,-0.186 m -1.137,-1.698 c 0.305,0.445 0.606,0.894 0.905,1.345 -0.075,0.058 -0.152,0.112 -0.234,0.165 -0.429,-0.036 -0.971,-0.1 -1.546,-0.213 0.377,-0.386 0.702,-0.878 0.875,-1.297 m -1.168,-1.65 c 0.294,0.399 0.582,0.806 0.867,1.214 -0.082,0.413 -0.531,1.161 -1.072,1.623 -0.409,-0.1 -0.823,-0.226 -1.215,-0.386 1.026,-0.59 1.392,-1.538 1.42,-2.451 M -16.94,-5.06 c 0.315,0.394 0.625,0.792 0.928,1.196 0.145,1.062 -0.129,2.247 -1.455,2.84 -0.377,-0.194 -0.718,-0.427 -0.995,-0.705 1.952,-0.313 1.912,-2.769 0.144,-2.769 -1.465,0 -1.389,1.814 -0.754,2.699 0.009,0.017 0.02,0.031 0.033,0.045 l 0.005,0.007 c 0.314,0.404 0.782,0.793 1.435,1.125 0.021,0.017 0.045,0.029 0.072,0.036 0.476,0.234 1.048,0.44 1.726,0.601 0.024,0.01 0.051,0.017 0.078,0.018 0.408,0.094 0.853,0.171 1.338,0.23 -0.377,0.171 -0.802,0.323 -1.26,0.475 -0.298,0.099 -0.605,0.196 -0.918,0.297 -6.637,-2.144 -3.971,-7.995 -0.377,-6.095 m -1.504,-1.767 c 0.323,0.357 0.638,0.721 0.947,1.09 -3.601,-1.024 -5.878,4.656 0.277,6.987 -0.444,0.15 -0.89,0.313 -1.325,0.503 -4,-1.791 -5.334,-7.876 0.101,-8.58 m -1.269,-1.33 c 0.315,0.311 0.623,0.631 0.924,0.955 -1.962,0.321 -3.044,1.245 -3.476,2.406 -0.27,-0.26 -0.483,-0.434 -0.728,-0.549 0.063,-0.12 0.125,-0.233 0.188,-0.341 0.025,-0.022 0.045,-0.053 0.055,-0.09 0.792,-1.301 1.676,-1.68 3.037,-2.381 m 0.161,-0.424 c -0.81,-0.795 -1.663,-1.549 -2.57,-2.249 l 0.06,-0.079 c 0.14,-0.182 0.28,-0.361 0.418,-0.537 4.238,2.645 7.335,7.249 10.414,12.12 2.667,4.223 5.468,8.946 9.105,12.503 0.015,0.022 0.033,0.039 0.053,0.052 0.368,0.358 0.744,0.705 1.13,1.036 l -0.322,0.946 c -1.405,-1.15 -2.683,-2.483 -3.868,-3.915 -0.012,-0.021 -0.027,-0.04 -0.045,-0.055 -2.281,-2.767 -4.221,-5.902 -6.082,-8.818 -0.98,-1.535 -1.974,-3.079 -3.021,-4.585 -0.01,-0.023 -0.024,-0.042 -0.041,-0.059 -0.424,-0.608 -0.856,-1.21 -1.301,-1.801 -0.01,-0.021 -0.024,-0.04 -0.04,-0.054 -0.321,-0.427 -0.648,-0.85 -0.982,-1.264 -0.01,-0.02 -0.024,-0.036 -0.042,-0.054 -0.488,-0.605 -0.991,-1.197 -1.512,-1.772 -0.012,-0.021 -0.029,-0.038 -0.048,-0.053 -0.413,-0.455 -0.838,-0.9 -1.276,-1.332 z M -0.795,13.835 C -1.121,13.55 -1.439,13.256 -1.751,12.952 l -0.235,-1.985 1.32,-0.273 c 0.243,0.2 0.49,0.396 0.741,0.588 l -0.176,0.516 c -0.378,-0.129 -0.789,0.073 -0.918,0.451 -0.128,0.378 0.074,0.789 0.452,0.918 z m -20.034,-26.351 c 8.61,5.763 12.048,16.253 19.75,22.864 l -1.138,0.228 c -0.224,0.05 -0.224,0.045 -0.2,0.299 l 0.186,1.6 c -7.116,-7.268 -11.088,-19.194 -19.152,-24.254 0.191,-0.247 0.378,-0.491 0.554,-0.737 m -2.048,2.727 c 0.018,-0.019 0.033,-0.039 0.043,-0.064 0.152,-0.221 0.305,-0.435 0.459,-0.641 0.826,0.638 1.604,1.314 2.344,2.028 -0.365,0.187 -0.696,0.355 -1.002,0.526 -0.569,-0.575 -0.958,-0.835 -1.931,-0.824 -0.159,0.002 -0.245,0.122 -0.198,0.274 0.175,0.557 0.011,1.889 -0.001,2.581 -0.079,0.135 -0.157,0.279 -0.234,0.431 -0.26,-0.053 -0.576,-0.071 -1.007,-0.071 -0.241,0 -0.32,0.203 -0.142,0.364 0.651,0.596 0.553,1.446 0.691,2.54 -0.373,-0.196 -1.047,-0.666 -1.307,-0.852 0.321,-2.876 1.262,-4.782 2.285,-6.292 m -0.789,-1.75 c -0.001,0.495 0.159,0.994 0.396,1.58 -1.045,1.558 -2.005,3.541 -2.321,6.514 -0.005,0.021 -0.008,0.042 -0.007,0.064 -0.029,0.281 -0.052,0.572 -0.069,0.873 -0.005,0.023 -0.007,0.046 -0.004,0.07 -0.005,0.1 -0.01,0.201 -0.013,0.304 -0.037,0.962 0.024,1.934 0.178,2.899 -0.001,0.028 0.004,0.055 0.013,0.079 0.048,0.288 0.103,0.575 0.167,0.861 -0.001,0.029 0.006,0.058 0.019,0.086 0.623,2.721 1.98,5.33 3.952,7.422 0.013,0.021 0.03,0.038 0.05,0.053 0.581,0.612 1.216,1.178 1.9,1.69 l 0.013,0.009 c 1.072,0.8 2.265,1.463 3.568,1.952 0.014,0.008 0.028,0.013 0.043,0.017 1.596,0.594 3.358,0.926 5.262,0.926 0.112,0.012 0.224,0.011 0.332,-0.003 0.703,-0.015 1.425,-0.074 2.165,-0.182 0.329,0.423 0.735,0.645 1.229,0.727 -0.043,0.012 -0.086,0.023 -0.129,0.035 -0.008,0.001 -0.016,0.003 -0.024,0.005 -0.917,0.242 -1.837,0.39 -2.751,0.452 h -0.014 c -4.853,0.317 -9.537,-1.816 -12.771,-5.373 l -0.01,-0.01 c -0.654,-0.72 -1.248,-1.497 -1.772,-2.325 -0.006,-0.011 -0.012,-0.02 -0.019,-0.03 -0.485,-0.768 -0.909,-1.578 -1.265,-2.424 -0.001,-0.005 -0.004,-0.01 -0.006,-0.016 -0.349,-0.831 -0.632,-1.697 -0.84,-2.591 -0.803,-3.454 -0.502,-7.317 1.362,-11.228 l 0.003,-0.005 c 0.386,-0.809 0.839,-1.621 1.363,-2.431 m 10.064,1.603 c 0.253,0.18 0.54,0.315 0.85,0.395 -0.165,0.441 -0.304,0.967 -0.369,1.552 -0.252,-0.304 -0.507,-0.607 -0.767,-0.903 0.055,-0.343 0.137,-0.701 0.286,-1.044 m -1.015,-1.446 c 0.122,0.447 0.36,0.847 0.68,1.166 -0.147,0.308 -0.241,0.625 -0.305,0.926 -0.306,-0.338 -0.618,-0.671 -0.937,-0.996 0.191,-0.285 0.387,-0.658 0.562,-1.096 M -3.782,1.163 c 0.009,0.023 0.022,0.045 0.041,0.066 0.305,0.499 0.507,1.021 0.623,1.565 10e-4,0.023 0.006,0.046 0.014,0.068 0.099,0.492 0.127,1.001 0.1,1.532 C -3.01,4.417 -3.012,4.441 -3.008,4.465 -3.033,4.848 -3.086,5.242 -3.164,5.646 -3.43,5.341 -3.691,5.029 -3.949,4.712 -3.832,3.356 -4.15,1.877 -5.583,0.557 c 0.044,-0.421 0.047,-0.833 0.012,-1.234 0.796,0.58 1.381,1.192 1.789,1.84 m 0.674,0.351 C -1.263,2.23 1.005,2.57 2.775,2.016 1.981,4.349 1.159,6.811 0.7,8.188 0.683,5.812 -0.396,3.57 -2.724,2.625 -2.811,2.245 -2.938,1.875 -3.108,1.514 m -16.511,-21.492 c 0.408,-0.254 0.86,-0.467 1.333,-0.621 5.283,2.673 4.011,8.127 2.804,10.009 -0.25,-0.247 -0.505,-0.49 -0.763,-0.727 1.816,-3.388 0.979,-7.256 -3.374,-8.661 m -1.345,1.236 c 0.235,-0.335 0.545,-0.65 0.905,-0.928 4.29,1.215 5.184,4.811 3.491,8.063 -0.246,-0.219 -0.497,-0.433 -0.752,-0.64 1.798,-3.11 -0.549,-6.286 -3.644,-6.495 m -0.483,1.209 c 0.029,-0.272 0.112,-0.538 0.239,-0.797 2.939,0.051 5.142,2.978 3.555,5.817 -0.299,-0.234 -0.603,-0.461 -0.914,-0.677 0.591,-1.07 1.085,-3.886 -2.88,-4.343 m 1.439,2.365 c -0.93,-0.59 -1.365,-1.267 -1.439,-1.941 0.617,0.076 1.11,0.212 1.502,0.391 0.064,0.564 0.035,1.075 -0.063,1.55 m 0.335,0.418 c 0.011,-0.024 0.018,-0.049 0.02,-0.075 0.132,-0.502 0.192,-1.043 0.153,-1.644 1.281,0.879 0.964,2.346 0.585,3.04 -0.328,-0.219 -0.663,-0.429 -1.005,-0.63 0.097,-0.223 0.18,-0.454 0.247,-0.691 m 19.302,-7.981 c -0.018,-0.01 -0.036,-0.018 -0.056,-0.021 -1.288,-0.505 -2.593,-0.886 -3.891,-1.153 -0.02,-0.008 -0.041,-0.012 -0.064,-0.012 -1.197,-0.245 -2.388,-0.394 -3.557,-0.459 -0.019,-0.004 -0.04,-0.006 -0.061,-0.004 -3.92,-0.211 -7.581,0.51 -10.326,1.743 l -0.094,0.043 c -0.027,0.007 -0.051,0.018 -0.072,0.032 -4.672,2.166 -6.779,6.003 -2.21,9.098 -0.468,0.782 -1.088,1.509 -1.694,2.298 -0.194,0.252 -0.39,0.515 -0.585,0.79 -0.362,-0.96 -0.404,-1.579 0.205,-2.445 0.07,-0.099 0.045,-0.202 -0.019,-0.266 l -3.258,-3.904 c -0.086,-0.103 -0.228,-0.106 -0.317,-0.007 -16.297,17.859 2.275,44.953 24.709,37.157 0.137,-0.048 0.186,-0.183 0.111,-0.307 l -3.518,-5.831 c -0.036,-0.077 -0.115,-0.134 -0.228,-0.113 -1.093,0.204 -1.762,0.141 -2.233,-0.312 1.013,-0.176 2.058,-0.442 3.133,-0.808 0.96,1.06 1.979,2.043 3.079,2.922 0.014,0.015 0.03,0.027 0.048,0.037 0.057,0.035 0.116,0.039 0.167,0.023 0.052,-0.014 0.099,-0.049 0.128,-0.11 0.01,-0.017 0.017,-0.037 0.021,-0.057 L 1.07,9.665 C 1.091,9.618 1.095,9.565 1.078,9.516 1.061,9.465 1.024,9.426 0.979,9.402 0.914,9.358 0.849,9.315 0.783,9.271 1.199,8.018 4.099,-0.702 4.993,-3.048 5.273,-3.784 5.89,-5.122 5.901,-5.901 5.912,-6.697 5.361,-7.063 4.229,-7.146 3.666,-7.687 3.581,-7.882 3.884,-8.286 c 0.604,-0.798 0.27,-1.159 -0.402,-1.697 0.652,-0.527 0.505,-1.476 0.183,-1.493 -0.472,-0.021 -0.651,-0.169 -0.919,-0.545 2.067,-2.032 0.358,-3.766 -2.394,-4.347 -0.871,-0.185 -1.875,-0.269 -2.958,-0.232 -0.002,-0.01 -0.004,-0.022 -0.008,-0.033 -0.371,-1.164 -0.582,-2.288 -0.67,-3.317 1.846,-0.515 4.027,-1.196 4.6,-1.676 0.02,-0.014 0.037,-0.031 0.052,-0.05 0.043,-0.052 0.055,-0.109 0.046,-0.161 -0.006,-0.055 -0.035,-0.106 -0.091,-0.143 -0.017,-0.013 -0.036,-0.023 -0.057,-0.032 -0.541,-0.262 -1.088,-0.503 -1.637,-0.719 m -2.959,1.381 c 1.151,-0.302 2.402,-0.667 2.886,-0.958 0.409,0.164 0.818,0.342 1.224,0.531 -0.732,0.394 -2.459,0.94 -4.094,1.399 -0.018,-0.336 -0.023,-0.661 -0.016,-0.972 m 2.352,-1.163 c -0.512,0.212 -1.405,0.476 -2.334,0.722 0.031,-0.514 0.095,-0.984 0.184,-1.402 0.718,0.191 1.437,0.416 2.15,0.68"
             style="fill:#1d1d1b;fill-opacity:1;fill-rule:nonzero;stroke:none"
             id="path24" />
        </g>
        <g
           id="g26"
           transform="translate(129.6104,21.834)">
          <path
             d="m 0,0 v -0.746 h 2.373 v -7.331 h 0.891 v 7.331 H 5.65 V 0 Z M -5.477,0.007 -7.944,0 v -8.077 h 2.193 c 2.799,0 4.65,1.419 4.65,4.149 0,1.976 -1.128,3.935 -4.376,3.935 m -0.375,-7.385 h -1.181 v 6.679 l 1.365,-0.006 c 2.241,0 3.712,-1.148 3.712,-3.281 0,-2.121 -1.497,-3.392 -3.896,-3.392 M -9.787,-7.987 -12.984,0 h -0.948 l -3.292,-7.987 0.893,-0.312 1.087,2.83 h 3.515 l 1.055,-2.837 z m -3.672,7.173 1.486,-3.998 h -3.021 z M -23.312,0 v -0.746 h 2.374 v -7.331 h 0.891 v 7.331 h 2.386 V 0 Z m -4.136,-7.616 c -0.628,0 -1.273,0.272 -1.72,0.568 l -0.358,-0.588 c 0.65,-0.388 1.297,-0.593 2.136,-0.593 1.757,0 2.574,1.1 2.574,2.276 0,1.229 -0.872,1.75 -1.797,2.192 l -0.679,0.326 c -0.589,0.296 -1.215,0.684 -1.215,1.445 0,1.047 0.863,1.519 1.605,1.519 0.754,0 1.245,-0.264 1.712,-0.567 l 0.31,0.594 c -0.624,0.361 -1.31,0.588 -2.07,0.588 -1.425,0 -2.407,-0.865 -2.407,-2.076 0,-1.689 1.237,-1.995 2.426,-2.568 0.654,-0.316 1.193,-0.711 1.193,-1.536 0,-0.969 -0.711,-1.58 -1.71,-1.58 M -38.708,0 h -0.987 l -2.259,-7.99 0.869,-0.234 1.903,7.016 2.05,-6.869 h 1.015 l 2.083,6.885 1.877,-7.032 0.857,0.234 -2.248,7.99 h -0.992 l -2.086,-7.04 z m -8.48,-0.001 -2.442,0.007 v -8.09 h 0.91 v 3.48 h 0.741 c 0.597,0 0.905,-0.219 1.256,-0.648 l 0.348,-0.445 1.897,-2.584 0.79,0.47 -1.6,2.119 c -0.315,0.387 -0.743,1.145 -1.26,1.267 l 0.008,0.167 c 1.114,0.15 1.765,0.796 1.765,2.1 0,1.314 -0.892,2.157 -2.413,2.157 m -0.455,-3.937 h -1.077 v 3.244 h 1.303 c 1.392,0 1.808,-0.68 1.808,-1.613 0,-1.285 -1.005,-1.631 -2.034,-1.631 m -4.137,-4.042 -3.197,7.986 h -0.946 l -3.293,-7.985 0.892,-0.313 1.087,2.832 h 3.515 l 1.055,-2.838 z m -3.672,7.171 1.487,-3.998 h -3.021 z M -64.842,0.007 -67.31,0 v -8.077 h 2.194 c 2.798,0 4.65,1.419 4.65,4.149 0,1.976 -1.13,3.935 -4.376,3.935 m -0.375,-7.385 h -1.182 v 6.679 l 1.366,-0.006 c 2.241,0 3.711,-1.148 3.711,-3.281 0,-2.121 -1.497,-3.392 -3.895,-3.392 M 0.028,13.37 V 12.624 H 2.401 V 5.286 h 0.892 l 10e-4,7.338 H 5.68 v 0.746 z m -5.996,0.512 h -0.807 v -1.056 h 0.807 z m 3.827,0 h -0.812 v -1.056 h 0.812 z m 1.34,-8.499 -3.196,7.987 H -4.944 L -8.237,5.384 -7.345,5.07 -6.258,7.902 h 3.515 l 1.056,-2.838 z m -3.673,7.172 1.488,-3.998 h -3.021 z m -9.745,0.815 v -0.746 h 2.374 V 5.286 h 0.892 v 7.338 h 2.387 V 13.37 Z M -16.89,5.286 h 0.903 v 8.083 h -0.903 z m -5.056,0.438 c -0.629,0 -1.273,0.273 -1.72,0.569 l -0.359,-0.586 c 0.651,-0.393 1.296,-0.597 2.137,-0.597 1.757,0 2.575,1.102 2.575,2.278 0,1.23 -0.874,1.75 -1.798,2.193 l -0.679,0.325 c -0.589,0.297 -1.215,0.683 -1.215,1.444 0,1.046 0.863,1.521 1.605,1.521 0.754,0 1.245,-0.267 1.713,-0.568 l 0.309,0.593 c -0.624,0.361 -1.309,0.587 -2.07,0.587 -1.425,0 -2.406,-0.862 -2.406,-2.074 0,-1.689 1.236,-1.995 2.424,-2.569 0.655,-0.316 1.194,-0.71 1.194,-1.536 0,-0.969 -0.711,-1.58 -1.71,-1.58 m -6.729,7.639 -2.441,0.007 V 5.278 h 0.911 V 8.76 h 0.74 c 0.598,0 0.905,-0.219 1.257,-0.65 l 0.347,-0.443 1.897,-2.585 0.789,0.473 -1.598,2.115 c -0.315,0.391 -0.745,1.146 -1.26,1.268 l 0.008,0.168 c 1.114,0.15 1.764,0.796 1.764,2.099 0,1.316 -0.891,2.158 -2.414,2.158 m -0.453,-3.936 h -1.077 v 3.242 h 1.302 c 1.392,0 1.808,-0.68 1.808,-1.611 0,-1.287 -1.005,-1.631 -2.033,-1.631 m -8.495,3.943 V 5.286 h 4.392 v 0.745 h -3.488 v 3.065 h 3.153 v 0.747 h -3.153 v 2.781 h 3.488 v 0.746 z m -7.947,0.124 -0.877,-0.277 3.084,-7.931 h 0.892 l 3.104,7.919 -0.858,0.287 -2.669,-7.25 z m -3.531,-8.208 h 0.903 v 8.083 h -0.903 z m -8.457,8.262 -0.938,-0.238 V 5.286 h 0.863 l -0.004,6.934 4.749,-7.113 0.953,0.264 v 7.992 h -0.84 l -0.016,-6.929 z m -3.495,-5.477 v 5.299 h -0.904 V 8.203 c 0,-1.812 -0.874,-2.386 -2.268,-2.386 -1.528,0 -2.174,0.835 -2.174,2.386 v 5.167 h -0.93 l 0.024,-5.376 c 0,-1.843 1.084,-2.845 3.08,-2.845 1.517,0 3.172,0.488 3.172,2.922 M 1.155,26.733 v -8.078 h 4.4 v 0.747 H 2.066 v 3.064 h 3.16 v 0.746 h -3.16 v 2.775 h 3.489 v 0.746 z m -9.083,0 v -8.078 h 0.904 v 3.87 h 4.403 v -3.87 h 0.897 v 8.078 h -0.897 v -3.474 h -4.403 v 3.474 z m -4.75,-0.507 c 0.776,0 1.457,-0.157 2.093,-0.58 l 0.343,0.649 c -0.759,0.396 -1.509,0.615 -2.436,0.615 -2.387,0 -4.268,-1.722 -4.268,-4.186 0,-2.628 1.878,-4.185 4.268,-4.185 0.818,0 1.685,0.315 2.4,0.718 l -0.322,0.576 c -0.629,-0.351 -1.362,-0.61 -2.078,-0.61 -1.962,0 -3.347,1.562 -3.347,3.501 0,1.94 1.385,3.502 3.347,3.502 m -8.871,-7.078 c -0.628,0 -1.272,0.274 -1.72,0.57 l -0.359,-0.586 c 0.652,-0.392 1.297,-0.596 2.139,-0.596 1.756,0 2.572,1.101 2.572,2.276 0,1.23 -0.873,1.75 -1.797,2.194 l -0.679,0.325 c -0.588,0.297 -1.214,0.683 -1.214,1.444 0,1.048 0.863,1.521 1.604,1.521 0.754,0 1.245,-0.266 1.712,-0.568 l 0.312,0.593 c -0.625,0.362 -1.312,0.588 -2.072,0.588 -1.425,0 -2.407,-0.863 -2.407,-2.076 0,-1.688 1.237,-1.994 2.426,-2.568 0.654,-0.316 1.193,-0.711 1.193,-1.536 0,-0.968 -0.71,-1.581 -1.71,-1.581 m -5.503,-0.493 h 0.896 v 8.078 h -0.896 z m -8.894,8.262 -0.939,-0.238 v -8.024 h 0.864 l -0.004,6.935 4.749,-7.112 0.953,0.263 v 7.992 h -0.841 l -0.016,-6.929 z m -10.025,-0.184 v -8.078 h 0.905 v 3.87 h 4.402 v -3.87 h 0.898 v 8.078 h -0.898 v -3.474 h -4.402 v 3.474 z m -4.482,-0.507 c 0.775,0 1.458,-0.157 2.094,-0.58 l 0.341,0.649 c -0.757,0.396 -1.508,0.615 -2.435,0.615 -2.388,0 -4.268,-1.722 -4.268,-4.186 0,-2.628 1.878,-4.185 4.268,-4.185 0.818,0 1.684,0.315 2.399,0.718 l -0.32,0.576 c -0.631,-0.351 -1.363,-0.61 -2.079,-0.61 -1.962,0 -3.347,1.562 -3.347,3.501 0,1.94 1.385,3.502 3.347,3.502 m -10.343,0.507 v -8.078 h 4.391 v 0.747 h -3.488 v 3.064 h 3.159 v 0.747 h -3.159 v 2.774 h 3.488 v 0.746 z m -7.464,0 v -0.746 h 2.374 v -7.332 h 0.891 v 7.332 h 2.387 v 0.746 z"
             style="fill:#1d1d1b;fill-opacity:1;fill-rule:nonzero;stroke:none"
             id="path28" />
        </g>
      </g>
    </g>
  </g>
</svg>
